<svg width="132" height="52" viewBox="0 0 132 52" fill="none" xmlns="http://www.w3.org/2000/svg">
<path d="M65.6836 22.0247H71.4399C72.9878 22.0247 74.2495 22.4379 75.2251 23.2644C76.2025 24.0891 76.6916 25.2685 76.6916 26.8046C76.6916 27.9895 76.3954 28.9824 75.8029 29.7815C75.2105 30.5815 74.4068 31.1438 73.3929 31.4674L78.9334 38.1234H74.2706L69.3517 31.76V38.1234H65.6836V22.0247ZM69.3517 29.1671H69.7833C70.1197 29.1671 70.405 29.1616 70.639 29.1488C70.8749 29.1342 71.1419 29.0884 71.4399 29.0098C71.7398 28.9321 71.9794 28.8224 72.1604 28.6807C72.3433 28.5371 72.4987 28.3287 72.6285 28.0553C72.7602 27.7828 72.826 27.451 72.826 27.0606C72.826 26.6683 72.7602 26.3355 72.6285 26.0621C72.4987 25.7897 72.3433 25.5821 72.1604 25.4404C71.9794 25.2969 71.7398 25.1863 71.4399 25.1076C71.1419 25.0299 70.8749 24.9851 70.639 24.9723C70.405 24.9577 70.1197 24.9504 69.7833 24.9504H69.3517V29.1671Z" fill="#003F88"/>
<path d="M84.0661 22.0247V38.1234H80.3979V22.0247H84.0661Z" fill="#003F88"/>
<path d="M92.1859 38.1234L85.4348 22.0247H89.571L93.6305 32.6011L97.6899 22.0247H101.826L95.0751 38.1234H92.1859Z" fill="#003F88"/>
<path d="M106.86 22.0247V38.1234H103.191V22.0247H106.86Z" fill="#003F88"/>
<path d="M108.931 25.2429V22.0247H120.25V25.2429H116.424V38.1234H112.756V25.2429H108.931Z" fill="#003F88"/>
<path d="M131.529 22.0247V25.2429H125.984V28.443H131.294V31.6649H125.984V34.9051H131.529V38.1234H122.316V22.0247H131.529Z" fill="#003F88"/>
<mask id="mask0_65_6205" style="mask-type:luminance" maskUnits="userSpaceOnUse" x="2" y="25" width="21" height="5">
<path d="M2.73413 25.6338H22.6583V29.034H2.73413V25.6338Z" fill="white"/>
</mask>
<g mask="url(#mask0_65_6205)">
<mask id="mask1_65_6205" style="mask-type:luminance" maskUnits="userSpaceOnUse" x="2" y="25" width="21" height="5">
<path d="M2.73413 28.3319V26.335C2.73413 25.9474 3.04865 25.6338 3.4363 25.6338H21.9552C22.3428 25.6338 22.6574 25.9474 22.6574 26.335V28.3319C22.6574 28.7195 22.3428 29.034 21.9552 29.034H3.4363C3.04865 29.034 2.73413 28.7195 2.73413 28.3319Z" fill="white"/>
</mask>
<g mask="url(#mask1_65_6205)">
<path d="M2.73413 29.034V25.6338H22.6583V29.034H2.73413Z" fill="#809CC4"/>
</g>
</g>
<mask id="mask2_65_6205" style="mask-type:luminance" maskUnits="userSpaceOnUse" x="5" y="33" width="21" height="4">
<path d="M5.56665 33.1145H25.4908V36.5147H5.56665V33.1145Z" fill="white"/>
</mask>
<g mask="url(#mask2_65_6205)">
<mask id="mask3_65_6205" style="mask-type:luminance" maskUnits="userSpaceOnUse" x="5" y="33" width="21" height="4">
<path d="M5.56665 35.8135V33.8167C5.56665 33.429 5.88117 33.1145 6.26791 33.1145H24.7877C25.1754 33.1145 25.489 33.429 25.489 33.8167V35.8135C25.489 36.2011 25.1754 36.5147 24.7877 36.5147H6.26791C5.88117 36.5147 5.56665 36.2011 5.56665 35.8135Z" fill="white"/>
</mask>
<g mask="url(#mask3_65_6205)">
<path d="M5.56665 36.5147V33.1145H25.4908V36.5147H5.56665Z" fill="#809CC4"/>
</g>
</g>
<mask id="mask4_65_6205" style="mask-type:luminance" maskUnits="userSpaceOnUse" x="0" y="18" width="21" height="4">
<path d="M0.39917 18.0571H20.3224V21.4574H0.39917V18.0571Z" fill="white"/>
</mask>
<g mask="url(#mask4_65_6205)">
<mask id="mask5_65_6205" style="mask-type:luminance" maskUnits="userSpaceOnUse" x="0" y="18" width="21" height="4">
<path d="M0.398193 20.7552V18.7584C0.398193 18.3707 0.712708 18.0571 1.10037 18.0571H19.6192C20.0069 18.0571 20.3214 18.3707 20.3214 18.7584V20.7552C20.3214 21.1428 20.0069 21.4574 19.6192 21.4574H1.10037C0.712708 21.4574 0.398193 21.1428 0.398193 20.7552Z" fill="white"/>
</mask>
<g mask="url(#mask5_65_6205)">
<path d="M0.398193 21.4574V18.0571H20.3223V21.4574H0.398193Z" fill="#809CC4"/>
</g>
</g>
<mask id="mask6_65_6205" style="mask-type:luminance" maskUnits="userSpaceOnUse" x="2" y="10" width="21" height="4">
<path d="M2.73413 10.3469H22.6583V13.7472H2.73413V10.3469Z" fill="white"/>
</mask>
<g mask="url(#mask6_65_6205)">
<mask id="mask7_65_6205" style="mask-type:luminance" maskUnits="userSpaceOnUse" x="2" y="10" width="21" height="4">
<path d="M2.73413 13.0459V11.0482C2.73413 10.6614 3.04865 10.3469 3.4363 10.3469H21.9552C22.3428 10.3469 22.6574 10.6614 22.6574 11.0482V13.0459C22.6574 13.4336 22.3428 13.7472 21.9552 13.7472H3.4363C3.04865 13.7472 2.73413 13.4336 2.73413 13.0459Z" fill="white"/>
</mask>
<g mask="url(#mask7_65_6205)">
<path d="M2.73413 13.7472V10.3469H22.6583V13.7472H2.73413Z" fill="#809CC4"/>
</g>
</g>
<mask id="mask8_65_6205" style="mask-type:luminance" maskUnits="userSpaceOnUse" x="5" y="2" width="21" height="5">
<path d="M5.56665 2.63672H25.4908V6.03695H5.56665V2.63672Z" fill="white"/>
</mask>
<g mask="url(#mask8_65_6205)">
<mask id="mask9_65_6205" style="mask-type:luminance" maskUnits="userSpaceOnUse" x="5" y="2" width="21" height="5">
<path d="M5.56665 5.33569V3.33798C5.56665 2.95123 5.88117 2.63672 6.26791 2.63672H24.7877C25.1754 2.63672 25.489 2.95123 25.489 3.33798V5.33569C25.489 5.72335 25.1754 6.03695 24.7877 6.03695H6.26791C5.88117 6.03695 5.56665 5.72335 5.56665 5.33569Z" fill="white"/>
</mask>
<g mask="url(#mask9_65_6205)">
<path d="M5.56665 6.03695V2.63672H25.4908V6.03695H5.56665Z" fill="#809CC4"/>
</g>
</g>
<mask id="mask10_65_6205" style="mask-type:luminance" maskUnits="userSpaceOnUse" x="26" y="0" width="59" height="41">
<path d="M26.1455 0H84.1918V40.939H26.1455V0Z" fill="white"/>
</mask>
<g mask="url(#mask10_65_6205)">
<path d="M48.0867 3.90039C56.4999 7.24302 61.192 12.2716 62.1639 18.9861" stroke="#003F88" stroke-width="3.8588"/>
</g>
<path d="M31.0405 3.00996C38.0101 2.23008 43.7976 2.55922 48.4028 3.99739" stroke="#003F88" stroke-width="3.8588"/>
<mask id="mask11_65_6205" style="mask-type:luminance" maskUnits="userSpaceOnUse" x="9" y="9" width="69" height="43">
<path d="M9.29346 9.10718H77.8723V51.9187H9.29346V9.10718Z" fill="white"/>
</mask>
<g mask="url(#mask11_65_6205)">
<path d="M55.8188 31.0189C49.9097 35.8326 41.7223 37.471 31.2574 35.9341" stroke="#003F88" stroke-width="3.8588"/>
</g>
<mask id="mask12_65_6205" style="mask-type:luminance" maskUnits="userSpaceOnUse" x="33" y="0" width="52" height="52">
<path d="M33.8694 0H84.1917V51.9187H33.8694V0Z" fill="white"/>
</mask>
<g mask="url(#mask12_65_6205)">
<path d="M62.1192 18.7238C62.4767 23.4735 60.3464 27.5915 55.7283 31.0804" stroke="#003F88" stroke-width="3.8588"/>
</g>
<path d="M31.2199 35.8811C28.3225 25.0029 28.1305 14.0772 30.6448 3.10303" stroke="#003F88" stroke-width="3.8588" stroke-linecap="round"/>
<mask id="mask13_65_6205" style="mask-type:luminance" maskUnits="userSpaceOnUse" x="79" y="13" width="7" height="7">
<path d="M79.3909 13.9592H85.1097V19.6781H79.3909V13.9592Z" fill="white"/>
</mask>
<g mask="url(#mask13_65_6205)">
<mask id="mask14_65_6205" style="mask-type:luminance" maskUnits="userSpaceOnUse" x="79" y="13" width="7" height="7">
<path d="M82.2498 13.9592C80.6709 13.9592 79.3909 15.2392 79.3909 16.8191C79.3909 18.3981 80.6709 19.6781 82.2498 19.6781C83.8297 19.6781 85.1097 18.3981 85.1097 16.8191C85.1097 15.2392 83.8297 13.9592 82.2498 13.9592Z" fill="white"/>
</mask>
<g mask="url(#mask14_65_6205)">
<path d="M79.3909 13.9592H85.1097V19.6781H79.3909V13.9592Z" fill="#003F88"/>
</g>
</g>
<path fill-rule="evenodd" clip-rule="evenodd" d="M106.462 17.2135C106.273 17.8267 105.701 18.2722 105.026 18.2722C104.35 18.2722 103.779 17.8267 103.589 17.2135H102.151C102.366 18.6084 103.571 19.6766 105.026 19.6766C106.48 19.6766 107.686 18.6084 107.9 17.2135H106.462ZM103.589 16.3234C103.779 15.7102 104.35 15.2647 105.026 15.2647C105.701 15.2647 106.273 15.7102 106.462 16.3234H107.9C107.686 14.9286 106.48 13.8604 105.026 13.8604C103.571 13.8604 102.366 14.9286 102.151 16.3234H103.589Z" fill="#809CC4"/>
</svg>
