<svg width="200" height="24" viewBox="0 0 200 24" fill="none" xmlns="http://www.w3.org/2000/svg">
<path d="M0.549042 1.32612C0.348629 1.23159 0.262799 0.992485 0.357336 0.792072C0.451872 0.59166 0.690975 0.50583 0.891388 0.600366L0.549042 1.32612ZM199.728 0.963245L197.068 4.75674L195.113 0.556696L199.728 0.963245ZM0.891388 0.600366C1.59406 0.931825 2.29866 1.25988 3.00517 1.5845L2.67013 2.31366C1.96119 1.98791 1.25415 1.65873 0.549042 1.32612L0.891388 0.600366ZM7.2624 3.48899C8.68662 4.10899 10.1182 4.71519 11.5571 5.3074L11.2516 6.04946C9.80782 5.45519 8.37125 4.84689 6.94211 4.22474L7.2624 3.48899ZM15.8875 7.039C17.3354 7.60109 18.7902 8.14913 20.2519 8.68295L19.9766 9.4367C18.5099 8.90103 17.05 8.35109 15.5971 7.78706L15.8875 7.039ZM24.6487 10.2387C26.1178 10.7419 27.5935 11.2308 29.0757 11.7053L28.831 12.4696C27.3437 11.9934 25.8629 11.5028 24.3887 10.9978L24.6487 10.2387ZM33.5318 13.0825C35.0197 13.526 36.5139 13.955 38.0141 14.3694L37.8005 15.1429C36.295 14.7271 34.7957 14.2966 33.3026 13.8516L33.5318 13.0825ZM42.5223 15.5659C44.0267 15.949 45.5369 16.3174 47.0527 16.6711L46.8704 17.4526C45.3493 17.0977 43.8339 16.728 42.3243 16.3436L42.5223 15.5659ZM51.6057 17.6851C53.124 18.0072 54.6477 18.3145 56.1767 18.6069L56.026 19.3951C54.4917 19.1017 52.9627 18.7933 51.4392 18.47L51.6057 17.6851ZM60.7666 19.4369C62.2965 19.6977 63.8314 19.9436 65.3713 20.1745L65.2523 20.9681C63.7071 20.7364 62.1669 20.4897 60.6317 20.228L60.7666 19.4369ZM69.9904 20.8197C71.5295 21.0191 73.0732 21.2034 74.6215 21.3725L74.5343 22.1702C72.9807 22.0005 71.4317 21.8155 69.8874 21.6156L69.9904 20.8197ZM79.2623 21.8327C80.808 21.9705 82.3581 22.0931 83.9124 22.2006L83.8571 23.0011C82.2975 22.8933 80.7421 22.7702 79.1911 22.632L79.2623 21.8327ZM88.5673 22.476C90.1171 22.5523 91.6708 22.6135 93.2284 22.6594L93.2048 23.4615C91.6419 23.4154 90.0829 23.354 88.5278 23.2775L88.5673 22.476ZM97.8909 22.7509C98.6677 22.7585 99.4454 22.7623 100.224 22.7623V23.5648C99.4428 23.5648 98.6625 23.561 97.883 23.5533L97.8909 22.7509ZM100.224 22.7623C101.003 22.7623 101.78 22.7585 102.557 22.7509L102.565 23.5533C101.786 23.561 101.005 23.5648 100.224 23.5648V22.7623ZM107.22 22.6594C108.777 22.6135 110.331 22.5523 111.881 22.476L111.92 23.2775C110.365 23.354 108.806 23.4154 107.243 23.4615L107.22 22.6594ZM116.536 22.2006C118.09 22.0931 119.64 21.9705 121.186 21.8327L121.257 22.632C119.706 22.7702 118.151 22.8933 116.591 23.0011L116.536 22.2006ZM125.827 21.3725C127.375 21.2034 128.919 21.0191 130.458 20.8197L130.561 21.6156C129.016 21.8155 127.467 22.0005 125.914 22.1702L125.827 21.3725ZM135.077 20.1745C136.617 19.9436 138.152 19.6977 139.681 19.4369L139.816 20.228C138.281 20.4897 136.741 20.7364 135.196 20.9681L135.077 20.1745ZM144.271 18.6069C145.8 18.3145 147.324 18.0072 148.842 17.6851L149.009 18.47C147.485 18.7933 145.956 19.1017 144.422 19.3951L144.271 18.6069ZM153.395 16.6711C154.911 16.3174 156.421 15.949 157.926 15.5659L158.124 16.3436C156.614 16.728 155.099 17.0977 153.578 17.4526L153.395 16.6711ZM162.434 14.3694C163.934 13.955 165.428 13.526 166.916 13.0825L167.145 13.8516C165.652 14.2966 164.153 14.7271 162.648 15.1429L162.434 14.3694ZM171.372 11.7053C172.855 11.2308 174.33 10.7419 175.799 10.2387L176.059 10.9978C174.585 11.5028 173.104 11.9934 171.617 12.4696L171.372 11.7053ZM180.196 8.68295C181.658 8.14913 183.113 7.60109 184.561 7.039L184.851 7.78705C183.398 8.35109 181.938 8.90103 180.471 9.43671L180.196 8.68295ZM188.891 5.3074C190.33 4.71518 191.761 4.10899 193.186 3.48898L193.506 4.22473C192.077 4.84689 190.64 5.45518 189.196 6.04945L188.891 5.3074ZM0.549042 1.32612C0.348629 1.23159 0.262799 0.992485 0.357336 0.792072C0.451872 0.59166 0.690975 0.50583 0.891388 0.600366L0.549042 1.32612ZM199.728 0.963245L197.068 4.75674L195.113 0.556696L199.728 0.963245ZM0.891388 0.600366C1.59406 0.931825 2.29866 1.25988 3.00517 1.5845L2.67013 2.31366C1.96119 1.98791 1.25415 1.65873 0.549042 1.32612L0.891388 0.600366ZM7.2624 3.48899C8.68662 4.10899 10.1182 4.71519 11.5571 5.3074L11.2516 6.04946C9.80782 5.45519 8.37125 4.84689 6.94211 4.22474L7.2624 3.48899ZM15.8875 7.039C17.3354 7.60109 18.7902 8.14913 20.2519 8.68295L19.9766 9.4367C18.5099 8.90103 17.05 8.35109 15.5971 7.78706L15.8875 7.039ZM24.6487 10.2387C26.1178 10.7419 27.5935 11.2308 29.0757 11.7053L28.831 12.4696C27.3437 11.9934 25.8629 11.5028 24.3887 10.9978L24.6487 10.2387ZM33.5318 13.0825C35.0197 13.526 36.5139 13.955 38.0141 14.3694L37.8005 15.1429C36.295 14.7271 34.7957 14.2966 33.3026 13.8516L33.5318 13.0825ZM42.5223 15.5659C44.0267 15.949 45.5369 16.3174 47.0527 16.6711L46.8704 17.4526C45.3493 17.0977 43.8339 16.728 42.3243 16.3436L42.5223 15.5659ZM51.6057 17.6851C53.124 18.0072 54.6477 18.3145 56.1767 18.6069L56.026 19.3951C54.4917 19.1017 52.9627 18.7933 51.4392 18.47L51.6057 17.6851ZM60.7666 19.4369C62.2965 19.6977 63.8314 19.9436 65.3713 20.1745L65.2523 20.9681C63.7071 20.7364 62.1669 20.4897 60.6317 20.228L60.7666 19.4369ZM69.9904 20.8197C71.5295 21.0191 73.0732 21.2034 74.6215 21.3725L74.5343 22.1702C72.9807 22.0005 71.4317 21.8155 69.8874 21.6156L69.9904 20.8197ZM79.2623 21.8327C80.808 21.9705 82.3581 22.0931 83.9124 22.2006L83.8571 23.0011C82.2975 22.8933 80.7421 22.7702 79.1911 22.632L79.2623 21.8327ZM88.5673 22.476C90.1171 22.5523 91.6708 22.6135 93.2284 22.6594L93.2048 23.4615C91.6419 23.4154 90.0829 23.354 88.5278 23.2775L88.5673 22.476ZM97.8909 22.7509C98.6677 22.7585 99.4454 22.7623 100.224 22.7623V23.5648C99.4428 23.5648 98.6625 23.561 97.883 23.5533L97.8909 22.7509ZM100.224 22.7623C101.003 22.7623 101.78 22.7585 102.557 22.7509L102.565 23.5533C101.786 23.561 101.005 23.5648 100.224 23.5648V22.7623ZM107.22 22.6594C108.777 22.6135 110.331 22.5523 111.881 22.476L111.92 23.2775C110.365 23.354 108.806 23.4154 107.243 23.4615L107.22 22.6594ZM116.536 22.2006C118.09 22.0931 119.64 21.9705 121.186 21.8327L121.257 22.632C119.706 22.7702 118.151 22.8933 116.591 23.0011L116.536 22.2006ZM125.827 21.3725C127.375 21.2034 128.919 21.0191 130.458 20.8197L130.561 21.6156C129.016 21.8155 127.467 22.0005 125.914 22.1702L125.827 21.3725ZM135.077 20.1745C136.617 19.9436 138.152 19.6977 139.681 19.4369L139.816 20.228C138.281 20.4897 136.741 20.7364 135.196 20.9681L135.077 20.1745ZM144.271 18.6069C145.8 18.3145 147.324 18.0072 148.842 17.6851L149.009 18.47C147.485 18.7933 145.956 19.1017 144.422 19.3951L144.271 18.6069ZM153.395 16.6711C154.911 16.3174 156.421 15.949 157.926 15.5659L158.124 16.3436C156.614 16.728 155.099 17.0977 153.578 17.4526L153.395 16.6711ZM162.434 14.3694C163.934 13.955 165.428 13.526 166.916 13.0825L167.145 13.8516C165.652 14.2966 164.153 14.7271 162.648 15.1429L162.434 14.3694ZM171.372 11.7053C172.855 11.2308 174.33 10.7419 175.799 10.2387L176.059 10.9978C174.585 11.5028 173.104 11.9934 171.617 12.4696L171.372 11.7053ZM180.196 8.68295C181.658 8.14913 183.113 7.60109 184.561 7.039L184.851 7.78705C183.398 8.35109 181.938 8.90103 180.471 9.43671L180.196 8.68295ZM188.891 5.3074C190.33 4.71518 191.761 4.10899 193.186 3.48898L193.506 4.22473C192.077 4.84689 190.64 5.45518 189.196 6.04945L188.891 5.3074Z" fill="#001F42"/>
</svg>
