<svg width="200" height="24" viewBox="0 0 200 24" fill="none" xmlns="http://www.w3.org/2000/svg">
<path d="M0.383758 22.7564C0.183346 22.8509 0.0975161 23.09 0.192052 23.2904C0.286589 23.4909 0.525692 23.5767 0.726105 23.4822L0.383758 22.7564ZM199.563 23.1193L196.903 19.3258L194.947 23.5258L199.563 23.1193ZM0.726105 23.4822C1.42878 23.1507 2.13338 22.8226 2.83988 22.498L2.50485 21.7689C1.7959 22.0946 1.08887 22.4238 0.383758 22.7564L0.726105 23.4822ZM7.09712 20.5935C8.52133 19.9735 9.95294 19.3673 11.3918 18.7751L11.0864 18.0331C9.64254 18.6273 8.20597 19.2356 6.77682 19.8578L7.09712 20.5935ZM15.7223 17.0435C17.1701 16.4814 18.6249 15.9334 20.0866 15.3996L19.8113 14.6458C18.3446 15.1815 16.8847 15.7314 15.4318 16.2955L15.7223 17.0435ZM24.4834 13.8439C25.9525 13.3406 27.4282 12.8517 28.9104 12.3772L28.6657 11.613C27.1784 12.0891 25.6976 12.5798 24.2234 13.0847L24.4834 13.8439ZM33.3665 11C34.8544 10.5565 36.3486 10.1275 37.8488 9.71308L37.6352 8.93959C36.1297 9.35543 34.6304 9.78594 33.1373 10.231L33.3665 11ZM42.3571 8.51658C43.8614 8.13351 45.3716 7.76508 46.8874 7.41143L46.7051 6.62997C45.184 6.98484 43.6686 7.35455 42.159 7.73895L42.3571 8.51658ZM51.4404 6.39747C52.9587 6.07535 54.4824 5.76802 56.0114 5.47562L55.8607 4.68745C54.3264 4.98086 52.7974 5.28926 51.2739 5.61249L51.4404 6.39747ZM60.6013 4.6456C62.1312 4.38478 63.6661 4.13888 65.206 3.90803L65.087 3.11444C63.5418 3.34609 62.0016 3.59285 60.4665 3.85456L60.6013 4.6456ZM69.8252 3.26277C71.3642 3.06346 72.9079 2.87917 74.4562 2.71003L74.369 1.91233C72.8154 2.08204 71.2664 2.26697 69.7221 2.46697L69.8252 3.26277ZM79.097 2.24982C80.6428 2.11207 82.1929 1.9894 83.7472 1.88197L83.6918 1.08143C82.1322 1.18923 80.5768 1.31231 79.0258 1.45054L79.097 2.24982ZM88.402 1.60654C89.9518 1.53022 91.5055 1.46903 93.0631 1.42313L93.0395 0.621026C91.4766 0.667088 89.9176 0.72848 88.3626 0.805057L88.402 1.60654ZM97.7256 1.3316C98.5024 1.32399 99.2801 1.32017 100.059 1.32017V0.51772C99.2775 0.51772 98.4972 0.52155 97.7178 0.529192L97.7256 1.3316ZM100.059 1.32017C100.837 1.32017 101.615 1.32399 102.392 1.3316L102.4 0.529193C101.62 0.52155 100.84 0.51772 100.059 0.51772V1.32017ZM107.054 1.42313C108.612 1.46903 110.166 1.53022 111.715 1.60654L111.755 0.805058C110.2 0.72848 108.641 0.667088 107.078 0.621027L107.054 1.42313ZM116.37 1.88197C117.925 1.9894 119.475 2.11207 121.02 2.24982L121.092 1.45054C119.541 1.31231 117.985 1.18923 116.426 1.08143L116.37 1.88197ZM125.661 2.71003C127.21 2.87917 128.753 3.06347 130.292 3.26277L130.395 2.46697C128.851 2.26698 127.302 2.08204 125.748 1.91233L125.661 2.71003ZM134.912 3.90803C136.451 4.13888 137.986 4.38479 139.516 4.6456L139.651 3.85457C138.116 3.59285 136.576 3.34609 135.03 3.11444L134.912 3.90803ZM144.106 5.47562C145.635 5.76802 147.159 6.07535 148.677 6.39747L148.844 5.61249C147.32 5.28926 145.791 4.98086 144.257 4.68745L144.106 5.47562ZM153.23 7.41143C154.746 7.76508 156.256 8.13351 157.76 8.51658L157.958 7.73894C156.449 7.35455 154.933 6.98484 153.412 6.62997L153.23 7.41143ZM162.269 9.71307C163.769 10.1275 165.263 10.5565 166.751 11L166.98 10.231C165.487 9.78594 163.988 9.35543 162.482 8.93959L162.269 9.71307ZM171.207 12.3772C172.689 12.8517 174.165 13.3406 175.634 13.8438L175.894 13.0847C174.42 12.5798 172.939 12.0891 171.452 11.613L171.207 12.3772ZM180.031 15.3996C181.493 15.9334 182.947 16.4814 184.395 17.0435L184.686 16.2955C183.233 15.7314 181.773 15.1815 180.306 14.6458L180.031 15.3996ZM188.726 18.7751C190.165 19.3673 191.596 19.9735 193.02 20.5935L193.341 19.8578C191.912 19.2356 190.475 18.6273 189.031 18.0331L188.726 18.7751ZM0.383758 22.7564C0.183346 22.8509 0.0975161 23.09 0.192052 23.2904C0.286589 23.4909 0.525692 23.5767 0.726105 23.4822L0.383758 22.7564ZM199.563 23.1193L196.903 19.3258L194.947 23.5258L199.563 23.1193ZM0.726105 23.4822C1.42878 23.1507 2.13338 22.8226 2.83988 22.498L2.50485 21.7689C1.7959 22.0946 1.08887 22.4238 0.383758 22.7564L0.726105 23.4822ZM7.09712 20.5935C8.52133 19.9735 9.95294 19.3673 11.3918 18.7751L11.0864 18.0331C9.64254 18.6273 8.20597 19.2356 6.77682 19.8578L7.09712 20.5935ZM15.7223 17.0435C17.1701 16.4814 18.6249 15.9334 20.0866 15.3996L19.8113 14.6458C18.3446 15.1815 16.8847 15.7314 15.4318 16.2955L15.7223 17.0435ZM24.4834 13.8439C25.9525 13.3406 27.4282 12.8517 28.9104 12.3772L28.6657 11.613C27.1784 12.0891 25.6976 12.5798 24.2234 13.0847L24.4834 13.8439ZM33.3665 11C34.8544 10.5565 36.3486 10.1275 37.8488 9.71308L37.6352 8.93959C36.1297 9.35543 34.6304 9.78594 33.1373 10.231L33.3665 11ZM42.3571 8.51658C43.8614 8.13351 45.3716 7.76508 46.8874 7.41143L46.7051 6.62997C45.184 6.98484 43.6686 7.35455 42.159 7.73895L42.3571 8.51658ZM51.4404 6.39747C52.9587 6.07535 54.4824 5.76802 56.0114 5.47562L55.8607 4.68745C54.3264 4.98086 52.7974 5.28926 51.2739 5.61249L51.4404 6.39747ZM60.6013 4.6456C62.1312 4.38478 63.6661 4.13888 65.206 3.90803L65.087 3.11444C63.5418 3.34609 62.0016 3.59285 60.4665 3.85456L60.6013 4.6456ZM69.8252 3.26277C71.3642 3.06346 72.9079 2.87917 74.4562 2.71003L74.369 1.91233C72.8154 2.08204 71.2664 2.26697 69.7221 2.46697L69.8252 3.26277ZM79.097 2.24982C80.6428 2.11207 82.1929 1.9894 83.7472 1.88197L83.6918 1.08143C82.1322 1.18923 80.5768 1.31231 79.0258 1.45054L79.097 2.24982ZM88.402 1.60654C89.9518 1.53022 91.5055 1.46903 93.0631 1.42313L93.0395 0.621026C91.4766 0.667088 89.9176 0.72848 88.3626 0.805057L88.402 1.60654ZM97.7256 1.3316C98.5024 1.32399 99.2801 1.32017 100.059 1.32017V0.51772C99.2775 0.51772 98.4972 0.52155 97.7178 0.529192L97.7256 1.3316ZM100.059 1.32017C100.837 1.32017 101.615 1.32399 102.392 1.3316L102.4 0.529193C101.62 0.52155 100.84 0.51772 100.059 0.51772V1.32017ZM107.054 1.42313C108.612 1.46903 110.166 1.53022 111.715 1.60654L111.755 0.805058C110.2 0.72848 108.641 0.667088 107.078 0.621027L107.054 1.42313ZM116.37 1.88197C117.925 1.9894 119.475 2.11207 121.02 2.24982L121.092 1.45054C119.541 1.31231 117.985 1.18923 116.426 1.08143L116.37 1.88197ZM125.661 2.71003C127.21 2.87917 128.753 3.06347 130.292 3.26277L130.395 2.46697C128.851 2.26698 127.302 2.08204 125.748 1.91233L125.661 2.71003ZM134.912 3.90803C136.451 4.13888 137.986 4.38479 139.516 4.6456L139.651 3.85457C138.116 3.59285 136.576 3.34609 135.03 3.11444L134.912 3.90803ZM144.106 5.47562C145.635 5.76802 147.159 6.07535 148.677 6.39747L148.844 5.61249C147.32 5.28926 145.791 4.98086 144.257 4.68745L144.106 5.47562ZM153.23 7.41143C154.746 7.76508 156.256 8.13351 157.76 8.51658L157.958 7.73894C156.449 7.35455 154.933 6.98484 153.412 6.62997L153.23 7.41143ZM162.269 9.71307C163.769 10.1275 165.263 10.5565 166.751 11L166.98 10.231C165.487 9.78594 163.988 9.35543 162.482 8.93959L162.269 9.71307ZM171.207 12.3772C172.689 12.8517 174.165 13.3406 175.634 13.8438L175.894 13.0847C174.42 12.5798 172.939 12.0891 171.452 11.613L171.207 12.3772ZM180.031 15.3996C181.493 15.9334 182.947 16.4814 184.395 17.0435L184.686 16.2955C183.233 15.7314 181.773 15.1815 180.306 14.6458L180.031 15.3996ZM188.726 18.7751C190.165 19.3673 191.596 19.9735 193.02 20.5935L193.341 19.8578C191.912 19.2356 190.475 18.6273 189.031 18.0331L188.726 18.7751Z" fill="#001F42"/>
</svg>
